<svg id="Calque_1" data-name="Calque 1" xmlns="http://www.w3.org/2000/svg" viewBox="0 0 62.82 42.95"><defs><style>.cls-1{fill:#81d4fa;}.cls-2{fill:#01579b;}</style></defs><title>AppIcon</title><path class="cls-1" d="M31.35,3.89H66.91v9.17H44.65v6.83H65.3v8.76H44.65v8.46H67.56v9.73H31.35Z" transform="translate(-4.74 -3.89)"/><path class="cls-2" d="M4.74,3.89H29.58q6.21,0,9.54,3.08a10,10,0,0,1,3.32,7.61,9.64,9.64,0,0,1-2.37,6.54A10.68,10.68,0,0,1,35.44,24a12,12,0,0,1,6.81,3.82,10.49,10.49,0,0,1,2.18,6.81,11.68,11.68,0,0,1-1.55,6,11.47,11.47,0,0,1-4.25,4.22,14,14,0,0,1-5,1.4,58.9,58.9,0,0,1-5.94.59H4.74ZM18.12,20.74H23.9c2.07,0,3.51-.36,4.32-1.07a3.91,3.91,0,0,0,1.21-3.09,3.67,3.67,0,0,0-1.21-2.93c-.81-.71-2.22-1.06-4.24-1.06H18.12Zm0,16.87h6.77c2.29,0,3.9-.4,4.84-1.22a4.1,4.1,0,0,0,1.4-3.26,3.77,3.77,0,0,0-1.39-3.06c-.93-.77-2.55-1.16-4.88-1.16H18.12Z" transform="translate(-4.74 -3.89)"/></svg>